<?xml version="1.0" encoding="utf-8"?>
<svg xmlns="http://www.w3.org/2000/svg" xmlns:link="http://www.w3.org/1999/xlink">
  <symbol id="close" xmlns="http://www.w3.org/2000/svg" width="28" height="28" viewBox="0 0 28 28" fill="none">
    <path fill-rule="evenodd" clip-rule="evenodd" d="M14 2C7.373 2 2 7.373 2 14C2 20.63 7.373 26 14 26C20.627 26 26 20.63 26 14C26 7.373 20.627 2 14 2ZM0 14C0 6.268 6.268 0 14 0C21.732 0 28 6.268 28 14C28 21.73 21.732 28 14 28C6.268 28 0 21.73 0 14ZM8.23102 8.29303C8.62102 7.90203 9.25402 7.90203 9.64502 8.29303L14 12.648L18.355 8.29303C18.746 7.90203 19.379 7.90203 19.769 8.29303C20.16 8.68303 20.16 9.31697 19.769 9.70697L15.414 14.062L19.769 18.42C20.16 18.81 20.16 19.44 19.769 19.83C19.379 20.22 18.746 20.22 18.355 19.83L14 15.476L9.64502 19.83C9.25402 20.22 8.62102 20.22 8.23102 19.83C7.84002 19.44 7.84002 18.81 8.23102 18.42L12.586 14.062L8.23102 9.70697C7.84002 9.31697 7.84002 8.68303 8.23102 8.29303Z" fill="#ee204dac"/>
  </symbol>
  <symbol id="edit" xmlns="http://www.w3.org/2000/svg" width="20" height="20" viewBox="0 0 28 28" fill="none">
    <path fill-rule="evenodd" clip-rule="evenodd" d="M17.793 1.743C20.116 -0.581 23.884 -0.581 26.207 1.743C28.531 4.066 28.531 7.833 26.207 10.157L10.414 25.95H27C27.552 25.95 28 26.397 28 26.95C28 27.502 27.552 27.95 27 27.95H1C0.448 27.95 0 27.502 0 26.95V19.95C0 19.685 0.10503 19.43 0.29303 19.243L17.793 1.743ZM7.586 25.95L21.086 12.45L15.5 6.86403L2 20.364V25.95H7.586ZM16.914 5.45003L22.5 11.036L24.793 8.743C26.335 7.2 26.335 4.699 24.793 3.157C23.25 1.614 20.75 1.614 19.207 3.157L16.914 5.45003Z" fill="#F2CD5D"/>
  </symbol>
  <symbol id="del" xmlns="http://www.w3.org/2000/svg" width="20" height="20" viewBox="0 0 28 28" fill="none">
    <path d="M7 13C6.448 13 6 13.448 6 14C6 14.552 6.448 15 7 15H21C21.552 15 22 14.552 22 14C22 13.448 21.552 13 21 13H7Z" fill="#ee204dac"/>
    <path fill-rule="evenodd" clip-rule="evenodd" d="M14 0C6.268 0 0 6.268 0 14C0 21.73 6.268 28 14 28C21.732 28 28 21.73 28 14C28 6.268 21.732 0 14 0ZM2 14C2 7.373 7.373 2 14 2C20.627 2 26 7.373 26 14C26 20.63 20.627 26 14 26C7.373 26 2 20.63 2 14Z" fill="#ee204dac"/>
  </symbol>
  <symbol id="add" xmlns="http://www.w3.org/2000/svg" width="20" height="20" viewBox="0 0 28 28" fill="none">
    <path d="M14 6C14.552 6 15 6.448 15 7V13H21C21.552 13 22 13.448 22 14C22 14.552 21.552 15 21 15H15V21C15 21.55 14.552 22 14 22C13.448 22 13 21.55 13 21V15H7C6.448 15 6 14.552 6 14C6 13.448 6.448 13 7 13H13V7C13 6.448 13.448 6 14 6Z" fill="black"/>
    <path fill-rule="evenodd" clip-rule="evenodd" d="M14 0C6.268 0 0 6.268 0 14C0 21.73 6.268 28 14 28C21.732 28 28 21.73 28 14C28 6.268 21.732 0 14 0ZM2 14C2 7.373 7.373 2 14 2C20.627 2 26 7.373 26 14C26 20.63 20.627 26 14 26C7.373 26 2 20.63 2 14Z" fill="black"/>
  </symbol>
</svg>